<svg width="1440" height="1024" viewBox="0 0 1440 1024" fill="none" xmlns="http://www.w3.org/2000/svg">
<g clip-path="url(#clip0_1_101)">
<rect width="1440" height="1024" fill="white"/>
<path opacity="0.39" d="M870.15 1235.07C774.809 1241.61 637.855 1234.13 581.296 1229.57C509.885 1205.25 349.419 1150.08 278.851 1123.96C190.641 1091.31 226.73 1056.59 191.446 982.256C156.162 907.92 58.2065 857.398 41.7702 725.064C25.3339 592.729 109.423 546.731 222.688 584.43C335.952 622.13 455.629 669.598 658.734 634.375C861.839 599.152 1013.36 409.605 1102.89 346.075C1192.42 282.546 1315.11 267.739 1407.09 394.23C1499.07 520.721 1434.08 604.953 1297.38 718.847C1160.69 832.741 1281.5 882.854 1349.67 995.248C1417.84 1107.64 1299.16 1232.75 1186.18 1285.49C1073.2 1338.22 989.327 1226.88 870.15 1235.07Z" fill="#F3F4F6"/>
<path opacity="0.39" d="M394.243 346.735C355.822 295.832 290.699 298.394 262.94 306.038C146.038 338.131 215.514 495.605 251.39 454.601C287.266 413.596 348.777 417.919 381.621 423.752C414.464 429.584 442.269 410.363 394.243 346.735Z" fill="#F3F4F6"/>
<path opacity="0.39" d="M1071.64 144.345C1004.29 127.838 956.352 165.885 940.799 186.972C909.748 232.324 953.848 262.86 990.825 281.284C1027.8 299.709 1086.55 269.345 1111.26 241.119C1135.96 212.893 1155.82 164.979 1071.64 144.345Z" fill="#F3F4F6"/>
</g>
<defs>
<clipPath id="clip0_1_101">
<rect width="1440" height="1024" fill="white"/>
</clipPath>
</defs>
</svg>
